<svg width="341" height="22" viewBox="0 0 341 22" fill="none" xmlns="http://www.w3.org/2000/svg">
<path d="M168.2 0L164.4 21.4H156.7L151 5.8L148.3 21.4H141.8L145.3 1.8L144.1 0H153.2L158.9 15.6L161.7 0H168.2ZM3.4 1.7L0 21.4H6.5H6.8L9.2 7.9L12.3 21.3H12.4H16.6H16.7L24.7 7.9L22.3 21.3H28.7L32.5 0H25.2L15.2 16.7L11.4 0H6.9H3.8H2.3L3.4 1.7ZM55.2 12.1H50.5L55 21.3H48.5L44 12.1H40.7L39.1 21.3H32.7L36.2 1.7L35 0H53.8L56.8 3.1L55.2 12.1ZM50.4 3.4H42.3L41.4 8.5H49.5L50.4 3.4ZM111.7 12.1H107L111.5 21.3H105L100.5 12.1H97.2L95.6 21.3H89.2L92.7 1.7L91.4 0H110.2L113.2 3.1L111.7 12.1ZM106.8 3.4H98.7L97.8 8.5H105.9L106.8 3.4ZM57.9 18L57.3 21.3H62.9L63.5 18H57.9ZM70 3.5H76.3L73.1 21.4H79.6L82.8 3.5H88.6L89.2 0H69.1L70.3 1.8L70 3.5ZM267.9 12.1H263.2L267.7 21.3H261.2L256.7 12.1H253.4L251.8 21.3H245.4L248.9 1.7L247.7 0H266.5L269.5 3.1L267.9 12.1ZM263.1 3.4H255L254.1 8.5H262.2L263.1 3.4ZM338.6 12.1H333.9L338.4 21.3H331.9L327.4 12.1H324.1L322.5 21.3H316L319.5 1.7L318.3 0H337.1L340.1 3.1L338.6 12.1ZM333.7 3.4H325.6L324.7 8.5H332.8L333.7 3.4ZM275 3.5H281.3L278.1 21.4H284.6L287.8 3.5H293.6L294.2 0H274.1L275.3 1.8L275 3.5ZM134.8 3.4H125.3L124.4 8.5H133.9L134.8 3.4ZM123.7 12.1L122.1 21.3H115.7L119.2 1.7L117.9 0H138.2L141.3 3.2L138.1 21.4H131.4L133 12.2H123.7V12.1ZM212 3.4H203.9L203 8.6H211.1L212 3.4ZM217 12.1H202.4L200.8 21.3H194.4L197.9 1.7L196.6 0H215.4L218.5 3.2L217 12.1ZM189.2 8.6H176.8L177.7 3.7H184.4L184 5.9H190.6L191.1 3.2L188 0H170.4L171.6 1.8L169.7 12H185.7L184.6 18.1H168.6L168 21.4H190.6L192.3 11.8L189.2 8.6ZM238.3 3.4H228.8L226.3 17.9H235.8L238.3 3.4ZM244.9 3.2L241.7 21.4H222.5L219.7 18.6L222.7 1.8L221.5 0H241.8L244.9 3.2ZM315.5 3.5L316.1 0H296.6L297.8 1.8L294.3 21.4H312.3L312.9 18.1H301.5L302.6 12.1H312.4L313 8.7H303.2L304.1 3.6H315.5V3.5Z" fill="#747270"/>
</svg>
