<svg width="24" height="24" viewBox="0 0 24 24" fill="none" xmlns="http://www.w3.org/2000/svg">
<rect width="24" height="24" fill="white"/>
<path d="M5.02899 22C4.47101 22 3.99336 21.8042 3.59601 21.4125C3.19867 21.0208 3 20.55 3 20V6C3 5.45 3.19867 4.97917 3.59601 4.5875C3.99336 4.19583 4.47101 4 5.02899 4H6.04348V2H8.07246V4H16.1884V2H18.2174V4H19.2319C19.7899 4 20.2675 4.19583 20.6649 4.5875C21.0622 4.97917 21.2609 5.45 21.2609 6V20C21.2609 20.55 21.0622 21.0208 20.6649 21.4125C20.2675 21.8042 19.7899 22 19.2319 22H5.02899ZM5.02899 20H19.2319V10H5.02899V20ZM5.02899 8H19.2319V6H5.02899V8ZM12.1304 14C11.843 14 11.6021 13.9042 11.4076 13.7125C11.2132 13.5208 11.1159 13.2833 11.1159 13C11.1159 12.7167 11.2132 12.4792 11.4076 12.2875C11.6021 12.0958 11.843 12 12.1304 12C12.4179 12 12.6588 12.0958 12.8533 12.2875C13.0477 12.4792 13.1449 12.7167 13.1449 13C13.1449 13.2833 13.0477 13.5208 12.8533 13.7125C12.6588 13.9042 12.4179 14 12.1304 14ZM8.07246 14C7.78502 14 7.54408 13.9042 7.34964 13.7125C7.15519 13.5208 7.05797 13.2833 7.05797 13C7.05797 12.7167 7.15519 12.4792 7.34964 12.2875C7.54408 12.0958 7.78502 12 8.07246 12C8.3599 12 8.60085 12.0958 8.79529 12.2875C8.98973 12.4792 9.08696 12.7167 9.08696 13C9.08696 13.2833 8.98973 13.5208 8.79529 13.7125C8.60085 13.9042 8.3599 14 8.07246 14ZM16.1884 14C15.901 14 15.66 13.9042 15.4656 13.7125C15.2711 13.5208 15.1739 13.2833 15.1739 13C15.1739 12.7167 15.2711 12.4792 15.4656 12.2875C15.66 12.0958 15.901 12 16.1884 12C16.4758 12 16.7168 12.0958 16.9112 12.2875C17.1057 12.4792 17.2029 12.7167 17.2029 13C17.2029 13.2833 17.1057 13.5208 16.9112 13.7125C16.7168 13.9042 16.4758 14 16.1884 14ZM12.1304 18C11.843 18 11.6021 17.9042 11.4076 17.7125C11.2132 17.5208 11.1159 17.2833 11.1159 17C11.1159 16.7167 11.2132 16.4792 11.4076 16.2875C11.6021 16.0958 11.843 16 12.1304 16C12.4179 16 12.6588 16.0958 12.8533 16.2875C13.0477 16.4792 13.1449 16.7167 13.1449 17C13.1449 17.2833 13.0477 17.5208 12.8533 17.7125C12.6588 17.9042 12.4179 18 12.1304 18ZM8.07246 18C7.78502 18 7.54408 17.9042 7.34964 17.7125C7.15519 17.5208 7.05797 17.2833 7.05797 17C7.05797 16.7167 7.15519 16.4792 7.34964 16.2875C7.54408 16.0958 7.78502 16 8.07246 16C8.3599 16 8.60085 16.0958 8.79529 16.2875C8.98973 16.4792 9.08696 16.7167 9.08696 17C9.08696 17.2833 8.98973 17.5208 8.79529 17.7125C8.60085 17.9042 8.3599 18 8.07246 18ZM16.1884 18C15.901 18 15.66 17.9042 15.4656 17.7125C15.2711 17.5208 15.1739 17.2833 15.1739 17C15.1739 16.7167 15.2711 16.4792 15.4656 16.2875C15.66 16.0958 15.901 16 16.1884 16C16.4758 16 16.7168 16.0958 16.9112 16.2875C17.1057 16.4792 17.2029 16.7167 17.2029 17C17.2029 17.2833 17.1057 17.5208 16.9112 17.7125C16.7168 17.9042 16.4758 18 16.1884 18Z" fill="#B0B0B0"/>
</svg>
