<?xml version="1.0" encoding="utf-8"?>
<!-- Generator: Adobe Illustrator 24.0.1, SVG Export Plug-In . SVG Version: 6.00 Build 0)  -->
<svg version="1.1" id="Layer_1" xmlns="http://www.w3.org/2000/svg" xmlns:xlink="http://www.w3.org/1999/xlink" x="0px" y="0px"
	 viewBox="0 0 48.2 34" style="enable-background:new 0 0 48.2 34;" xml:space="preserve">
<style type="text/css">
	.st0{fill:#FFFFFF;}
</style>
<text transform="matrix(1 0 0 1 289.2322 405.4528)" style="font-family:'MyriadPro-Regular'; font-size:12px;">17 mm</text>
<path class="st0" d="M48.2,17.5v8.3c0,1.8-1.5,3.3-3.3,3.3h-5l-5,5v-5h-3.3c-1.2,0-2.3-0.7-2.8-1.6c4-0.2,7.1-3.5,7.1-7.6v-5.7h8.9
	C46.7,14.2,48.2,15.7,48.2,17.5z M29.6,10.6c-0.2-0.1-0.4-0.2-0.6-0.2h-1.2v2.1h1.2c0.3,0,0.5,0,0.7-0.1c0.2-0.1,0.3-0.2,0.3-0.3
	C30,12,30,11.8,30,11.6c0-0.2,0-0.4-0.1-0.6C29.8,10.9,29.7,10.7,29.6,10.6z M34,5.7v14.2c0,3.1-2.6,5.7-5.7,5.7h-5.7V34l-8.5-8.5
	H5.7C2.6,25.5,0,23,0,19.8V5.7C0,2.6,2.6,0,5.7,0h22.7C31.5,0,34,2.6,34,5.7z M10.4,8.9c0-0.1-0.1-0.2-0.2-0.2H8.5
	c-0.1,0-0.2,0.1-0.2,0.2v3H5.5v-3c0-0.1-0.1-0.2-0.2-0.2H3.6c-0.1,0-0.2,0.1-0.2,0.2V17c0,0.1,0.1,0.2,0.2,0.2h1.7
	c0.1,0,0.2-0.1,0.2-0.2v-3.2h2.8V17c0,0.1,0.1,0.2,0.2,0.2h1.7c0.1,0,0.2-0.1,0.2-0.2V8.9z M17.8,15.7c0-0.1-0.1-0.2-0.2-0.2H14
	v-1.7H17c0.1,0,0.2-0.1,0.2-0.2v-1.3c0-0.1-0.1-0.2-0.2-0.2H14v-1.5h3.5c0.1,0,0.2-0.1,0.2-0.2V8.9c0-0.1-0.1-0.2-0.2-0.2h-5.4
	c-0.1,0-0.2,0.1-0.2,0.2V17c0,0.1,0.1,0.2,0.2,0.2h5.4c0.1,0,0.2-0.1,0.2-0.2V15.7z M24.5,15.7c0-0.1-0.1-0.2-0.2-0.2H21V8.9
	c0-0.1-0.1-0.2-0.2-0.2h-1.7c-0.1,0-0.2,0.1-0.2,0.2V17c0,0.1,0.1,0.2,0.2,0.2h5.2c0.1,0,0.2-0.1,0.2-0.2V15.7z M32.2,11.6
	c0-0.6-0.1-1.1-0.4-1.5c-0.3-0.4-0.6-0.8-1.1-1c-0.5-0.2-1.1-0.4-1.7-0.4h-3.1c-0.1,0-0.2,0.1-0.2,0.2V17c0,0.1,0.1,0.2,0.2,0.2h1.7
	c0.1,0,0.2-0.1,0.2-0.2v-2.6h1.2c0.7,0,1.2-0.1,1.7-0.3c0.5-0.2,0.9-0.6,1.1-1C32,12.7,32.2,12.2,32.2,11.6z"/>
</svg>
