<svg width="35" height="37" viewBox="0 0 35 37" fill="none" xmlns="http://www.w3.org/2000/svg">
<path d="M16.5789 0C12.6705 0 8.92212 1.55928 6.15843 4.33482C3.39473 7.11036 1.84211 10.8748 1.84211 14.8V18.315C1.2864 18.8013 0.836139 19.397 0.519255 20.0653C0.202371 20.7337 0.0256302 21.4602 0 22.2C0.0419583 23.2727 0.405609 24.3077 1.0433 25.1693C1.68099 26.0309 2.56298 26.6789 3.57368 27.0285C5.96842 32.782 10.7763 37 16.5789 37H22.1053V33.3H16.5789C12.4158 33.3 8.63947 30.155 6.74211 25.1785L6.35526 24.161L5.26842 24.05C4.82581 23.9872 4.42104 23.7649 4.12957 23.4245C3.8381 23.0841 3.67981 22.6489 3.68421 22.2C3.68615 21.8772 3.77219 21.5604 3.93377 21.2813C4.09535 21.0022 4.32685 20.7704 4.60526 20.609L5.52632 20.0725V16.65C5.52632 16.1593 5.72039 15.6888 6.06586 15.3419C6.41132 14.9949 6.87986 14.8 7.36842 14.8H25.7895C26.278 14.8 26.7466 14.9949 27.092 15.3419C27.4375 15.6888 27.6316 16.1593 27.6316 16.65V25.9H20.0974C19.9301 25.429 19.6393 25.0122 19.2556 24.6936C18.872 24.3749 18.4097 24.1663 17.9177 24.0898C17.4257 24.0133 16.9222 24.0717 16.4605 24.2588C15.9988 24.4459 15.5961 24.7549 15.2948 25.153C14.9936 25.5511 14.805 26.0235 14.7491 26.5203C14.6931 27.0172 14.7719 27.52 14.9771 27.9756C15.1822 28.4311 15.5061 28.8226 15.9146 29.1085C16.323 29.3945 16.8008 29.5643 17.2974 29.6H31.3158C32.2929 29.6 33.23 29.2102 33.9209 28.5163C34.6118 27.8224 35 26.8813 35 25.9V22.2C35 21.2187 34.6118 20.2776 33.9209 19.5837C33.23 18.8898 32.2929 18.5 31.3158 18.5V14.8C31.3158 10.8748 29.7632 7.11036 26.9995 4.33482C24.2358 1.55928 20.4874 0 16.5789 0Z" fill="#FF8B04"/>
</svg>
