<svg width="22" height="22" viewBox="0 0 22 22" fill="none" xmlns="http://www.w3.org/2000/svg">
<path d="M5.34788 12.4697L13.9472 3.67494C14.0396 3.58046 14.7766 2.82663 15.9432 2.41855C17.5707 1.88484 19.2296 2.32407 20.5504 3.67494C21.9018 5.02581 22.3008 6.69028 21.7789 8.35474C21.4104 9.54882 20.6428 10.365 20.5504 10.4594L11.3065 19.9135C9.70944 21.5468 5.71643 23.6515 2.03102 19.9135C-1.62393 16.1755 0.464472 12.0606 2.03102 10.4594L11.9512 0.282688C12.3197 -0.0942293 12.9035 -0.0942293 13.272 0.282688C13.6405 0.659605 13.6405 1.25664 13.272 1.63356L3.38233 11.8103C3.22902 11.936 0.126397 15.2337 3.38233 18.5637C6.54589 21.7991 9.64753 18.9094 9.9856 18.5637L19.2296 9.07742C19.2296 9.07742 19.7514 8.54371 19.9971 7.78987C20.3047 6.78476 20.0895 5.90529 19.2296 5.02581C17.3869 3.14123 15.6051 4.71121 15.268 5.02581L6.66873 13.7894C6.36113 14.104 6.14688 14.6377 6.66873 15.1714C7.19059 15.7051 7.68198 15.4539 7.98958 15.1714L13.9482 9.07742C14.3167 8.73166 14.9309 8.73166 15.269 9.07742C15.6375 9.45434 15.6375 10.0825 15.269 10.4594L9.31044 16.5213C8.48097 17.3384 6.79158 17.9978 5.34887 16.5213C3.8747 15.0448 4.51842 13.2858 5.34788 12.4697Z" fill="#B0B0B0"/>
</svg>
