<svg width="25" height="25" viewBox="0 0 25 25" fill="none" xmlns="http://www.w3.org/2000/svg">
<path d="M22.6854 13.0022H8.82077ZM8.69897 13.6487L7.54468 17.5557C7.1077 19.0348 6.8892 19.7743 7.0751 20.2159C7.23649 20.5993 7.5661 20.8824 7.96404 20.9793C8.4224 21.091 9.09979 20.7456 10.4546 20.0548L20.58 14.8918C21.7727 14.2837 22.3692 13.9796 22.5606 13.568C22.7271 13.2099 22.7271 12.7945 22.5606 12.4365C22.3692 12.0249 21.7727 11.7208 20.58 11.1126L10.4408 5.94271C9.08969 5.25382 8.41417 4.90937 7.95625 5.02056C7.55864 5.11712 7.22909 5.39945 7.06726 5.78218C6.88085 6.22299 7.09702 6.96098 7.52937 8.43696L8.70037 12.4346C8.76652 12.6604 8.79954 12.7733 8.81261 12.8883C8.82427 12.9904 8.82414 13.0933 8.81223 13.1954C8.79889 13.3104 8.76562 13.4232 8.69897 13.6487Z" fill="white"/>
<path d="M22.6854 13.0022H8.82077M8.69897 13.6487L7.54468 17.5557C7.1077 19.0348 6.8892 19.7743 7.0751 20.2159C7.23649 20.5993 7.5661 20.8824 7.96404 20.9793C8.4224 21.091 9.09979 20.7456 10.4546 20.0548L20.58 14.8918C21.7727 14.2837 22.3692 13.9796 22.5606 13.568C22.7271 13.2099 22.7271 12.7945 22.5606 12.4365C22.3692 12.0249 21.7727 11.7208 20.58 11.1126L10.4408 5.94271C9.08969 5.25382 8.41417 4.90937 7.95625 5.02056C7.55864 5.11712 7.22909 5.39945 7.06726 5.78218C6.88085 6.22299 7.09702 6.96098 7.52937 8.43696L8.70037 12.4346C8.76652 12.6604 8.79954 12.7733 8.81261 12.8883C8.82427 12.9904 8.82414 13.0933 8.81223 13.1954C8.79889 13.3104 8.76562 13.4232 8.69897 13.6487Z" stroke="white" stroke-width="2" stroke-linecap="round" stroke-linejoin="round"/>
</svg>
