<svg width="26" height="26" viewBox="0 0 26 26" fill="none" xmlns="http://www.w3.org/2000/svg">
<path d="M1.28004 1.27986C1.72617 0.83386 2.33118 0.583313 2.96201 0.583313C3.59284 0.583313 4.19784 0.83386 4.64398 1.27986L13.0562 9.69207L21.4684 1.27986C21.9171 0.8465 22.518 0.606708 23.1418 0.612129C23.7656 0.617549 24.3623 0.867748 24.8034 1.30884C25.2445 1.74993 25.4947 2.34662 25.5001 2.97039C25.5055 3.59416 25.2657 4.1951 24.8323 4.64379L16.4201 13.056L24.8323 21.4682C25.2657 21.9169 25.5055 22.5179 25.5001 23.1416C25.4947 23.7654 25.2445 24.3621 24.8034 24.8032C24.3623 25.2443 23.7656 25.4945 23.1418 25.4999C22.518 25.5053 21.9171 25.2655 21.4684 24.8322L13.0562 16.4199L4.64398 24.8322C4.19529 25.2655 3.59434 25.5053 2.97057 25.4999C2.3468 25.4945 1.75011 25.2443 1.30902 24.8032C0.867931 24.3621 0.617732 23.7654 0.612312 23.1416C0.606891 22.5179 0.846683 21.9169 1.28004 21.4682L9.69226 13.056L1.28004 4.64379C0.834043 4.19766 0.583496 3.59266 0.583496 2.96183C0.583496 2.33099 0.834043 1.72599 1.28004 1.27986Z" fill="white"/>
</svg>
