<svg width="24" height="24" viewBox="0 0 24 24" fill="none" xmlns="http://www.w3.org/2000/svg">
<path fill-rule="evenodd" clip-rule="evenodd" d="M24 12C24 18.6283 18.6283 24 12 24C5.37174 24 0 18.6283 0 12C0 5.37174 5.37174 0 12 0C18.6283 0 24 5.37174 24 12ZM19.5248 7.53195C20.0396 8.0468 20.0396 8.88569 19.5248 9.40054L11.586 17.3393C11.0711 17.8542 10.2322 17.8542 9.71737 17.3393L4.78488 12.4068C4.27003 11.892 4.27003 11.0531 4.78488 10.5383C5.29973 10.0234 6.13861 10.0234 6.65347 10.5383L10.6535 14.5383L14.5923 10.5995L17.6598 7.53195C18.1746 7.0171 19.0099 7.0171 19.5248 7.53195Z" fill="#FF8B04"/>
</svg>
