<svg width="42" height="42" viewBox="0 0 42 42" fill="none" xmlns="http://www.w3.org/2000/svg">
<path d="M7.3969 16.7088L11.4036 18.4019C11.883 17.4442 12.3795 16.5206 12.8932 15.6313C13.4069 14.742 13.9719 13.8527 14.5883 12.9634L11.7118 12.399L7.3969 16.7088ZM14.6911 20.9672L20.547 26.7648C21.9852 26.2176 23.5263 25.3795 25.17 24.2508C26.8138 23.1221 28.3548 21.8394 29.7931 20.4028C32.1902 18.0085 34.0651 15.3491 35.4178 12.4247C36.7705 9.50021 37.3612 6.80662 37.19 4.34391C34.7243 4.17289 32.019 4.76291 29.0739 6.11398C26.1289 7.46505 23.4578 9.33774 21.0606 11.732C19.6223 13.1686 18.3382 14.7078 17.2081 16.3496C16.078 17.9914 15.239 19.5306 14.6911 20.9672ZM23.8345 17.6323C23.0468 16.8456 22.653 15.8793 22.653 14.7335C22.653 13.5876 23.0468 12.6213 23.8345 11.8347C24.6221 11.048 25.5981 10.6546 26.7624 10.6546C27.9267 10.6546 28.9027 11.048 29.6903 11.8347C30.478 12.6213 30.8718 13.5876 30.8718 14.7335C30.8718 15.8793 30.478 16.8456 29.6903 17.6323C28.9027 18.419 27.9267 18.8123 26.7624 18.8123C25.5981 18.8123 24.6221 18.419 23.8345 17.6323ZM24.8104 34.1016L29.1253 29.7919L28.5603 26.9187C27.6699 27.5344 26.7795 28.0902 25.8892 28.5862C24.9988 29.0822 24.0742 29.5696 23.1153 30.0484L24.8104 34.1016ZM40.8884 0.598541C41.5391 4.73726 41.1367 8.76481 39.6813 12.6812C38.2259 16.5976 35.7175 20.3344 32.156 23.8917L33.1833 28.971C33.3203 29.6551 33.2861 30.3221 33.0806 30.9719C32.8751 31.6218 32.5327 32.1862 32.0532 32.6651L23.4235 41.2845L19.1087 31.1772L10.3248 22.4038L0.20547 18.094L8.78382 9.47455C9.26325 8.99569 9.83685 8.65365 10.5046 8.44843C11.1724 8.2432 11.8487 8.209 12.5336 8.34581L17.619 9.37194C21.1805 5.81469 24.9132 3.30068 28.8171 1.82989C32.721 0.359111 36.7448 -0.051341 40.8884 0.598541ZM3.85255 28.9197C5.05113 27.7225 6.5151 27.1154 8.24446 27.0983C9.97383 27.0812 11.4378 27.6712 12.6364 28.8684C13.8349 30.0655 14.4257 31.5278 14.4086 33.2551C14.3914 34.9824 13.7836 36.4446 12.585 37.6418C11.7289 38.4969 10.2992 39.2323 8.29583 39.848C6.2925 40.4636 3.52723 41.0109 0 41.4898C0.479429 37.9667 1.02735 35.2047 1.64376 33.2038C2.26016 31.2028 2.99643 29.7748 3.85255 28.9197ZM6.78049 31.7929C6.43805 32.1349 6.0956 32.7591 5.75315 33.6655C5.4107 34.5719 5.17098 35.4869 5.034 36.4104C5.95862 36.2736 6.87467 36.0427 7.78216 35.7178C8.68965 35.3929 9.31462 35.0594 9.65707 34.7173C10.068 34.3069 10.2906 33.8109 10.3248 33.2294C10.3591 32.648 10.1707 32.152 9.7598 31.7415C9.34886 31.3311 8.85231 31.1344 8.27015 31.1515C7.68798 31.1686 7.19143 31.3824 6.78049 31.7929Z" fill="#FF8B04"/>
</svg>
