<svg width="39" height="40" viewBox="0 0 39 40" fill="none" xmlns="http://www.w3.org/2000/svg">
<path d="M19.5941 39.19C16.935 39.19 14.4362 38.6854 12.0975 37.6762C9.75881 36.6671 7.72448 35.2975 5.9945 33.5675C4.26452 31.8376 2.89496 29.8032 1.8858 27.4646C0.876648 25.1259 0.37207 22.627 0.37207 19.968C0.37207 17.3089 0.876648 14.8101 1.8858 12.4714C2.89496 10.1327 4.26452 8.09841 5.9945 6.36843C7.72448 4.63845 9.75881 3.26889 12.0975 2.25973C14.4362 1.25058 16.935 0.746002 19.5941 0.746002C21.6764 0.746002 23.6467 1.05035 25.5048 1.65905C27.3629 2.26774 29.0769 3.11671 30.6467 4.20596L27.8595 7.0412C26.6421 6.27232 25.3446 5.67164 23.9671 5.23914C22.5895 4.80665 21.1318 4.5904 19.5941 4.5904C15.3332 4.5904 11.705 6.08811 8.70961 9.08354C5.71418 12.079 4.21647 15.7071 4.21647 19.968C4.21647 24.2289 5.71418 27.857 8.70961 30.8524C11.705 33.8479 15.3332 35.3456 19.5941 35.3456C23.8549 35.3456 27.4831 33.8479 30.4785 30.8524C33.4739 27.857 34.9716 24.2289 34.9716 19.968C34.9716 19.3913 34.9396 18.8147 34.8755 18.238C34.8115 17.6614 34.7154 17.1007 34.5872 16.5561L37.7108 13.4325C38.0632 14.4577 38.3355 15.5149 38.5277 16.6041C38.7199 17.6934 38.816 18.8147 38.816 19.968C38.816 22.627 38.3115 25.1259 37.3023 27.4646C36.2932 29.8032 34.9236 31.8376 33.1936 33.5675C31.4636 35.2975 29.4293 36.6671 27.0906 37.6762C24.752 38.6854 22.2531 39.19 19.5941 39.19ZM16.903 28.8101L8.73363 20.6408L11.4247 17.9497L16.903 23.4279L36.125 4.1579L38.816 6.84898L16.903 28.8101Z" fill="#FF8B04"/>
</svg>
