<svg width="34" height="42" viewBox="0 0 34 42" fill="none" xmlns="http://www.w3.org/2000/svg">
<path d="M14.4322 28.387L26.0683 16.7509L23.1336 13.8161L14.4322 22.5175L10.1072 18.1925L7.17244 21.1273L14.4322 28.387ZM16.5946 41.6708C11.8235 40.4694 7.88468 37.732 4.77827 33.4585C1.67186 29.1851 0.118652 24.4397 0.118652 19.2223V6.65933L16.5946 0.480835L33.0706 6.65933V19.2223C33.0706 24.4397 31.5174 29.1851 28.411 33.4585C25.3046 37.732 21.3658 40.4694 16.5946 41.6708ZM16.5946 37.3459C20.1644 36.2131 23.1164 33.9477 25.4505 30.5495C27.7846 27.1513 28.9516 23.3756 28.9516 19.2223V9.49114L16.5946 4.85727L4.23765 9.49114V19.2223C4.23765 23.3756 5.4047 27.1513 7.7388 30.5495C10.0729 33.9477 13.0248 36.2131 16.5946 37.3459Z" fill="#FF8B04"/>
</svg>
