<svg width="29" height="18" viewBox="0 0 29 18" fill="none" xmlns="http://www.w3.org/2000/svg">
<path d="M25.59 0H7.32223C5.59106 0 4.18268 1.40839 4.18268 3.13955V7.67654H1.16947C0.672991 7.67654 0.270508 8.07908 0.270508 8.57555C0.270508 9.07203 0.672991 9.47452 1.16947 9.47452H4.18268V11.8882H2.6793C2.18282 11.8882 1.78034 12.2907 1.78034 12.7872C1.78034 13.2837 2.18282 13.6862 2.6793 13.6862H4.18262V14.8605C4.18262 16.5917 5.59101 18 7.32217 18H25.5899C27.3211 18 28.7295 16.5917 28.7295 14.8605V3.13961C28.7295 1.40844 27.3211 0 25.59 0ZM7.32223 1.79798H25.59C25.9088 1.79798 26.2018 1.90998 26.4323 2.09641L17.7071 8.49896C16.9706 9.03946 15.9416 9.03946 15.2051 8.49896L6.47991 2.09641C6.7103 1.90998 7.0034 1.79798 7.32223 1.79798ZM26.9316 14.8605C26.9316 15.6003 26.3298 16.2021 25.59 16.2021H7.32223C6.58246 16.2021 5.9806 15.6003 5.9806 14.8605V13.6862H9.36577C9.86225 13.6862 10.2647 13.2837 10.2647 12.7872C10.2647 12.2907 9.86225 11.8882 9.36577 11.8882H5.9806V3.96008L14.1414 9.94848C14.8229 10.4486 15.6394 10.6985 16.4561 10.6985C17.2725 10.6985 18.0893 10.4485 18.7707 9.94848L26.9315 3.96008L26.9316 14.8605Z" fill="white"/>
</svg>
