<?xml version="1.0" encoding="utf-8"?>
<!-- Generator: Adobe Illustrator 24.0.1, SVG Export Plug-In . SVG Version: 6.00 Build 0)  -->
<svg version="1.1" id="Layer_1" xmlns="http://www.w3.org/2000/svg" xmlns:xlink="http://www.w3.org/1999/xlink" x="0px" y="0px"
	 viewBox="0 0 28.3 28.3" style="enable-background:new 0 0 28.3 28.3;" xml:space="preserve">
<style type="text/css">
	.st0{fill:#FF8B04;}
	.st1{fill-rule:evenodd;clip-rule:evenodd;fill:#FF8B04;}
	.st2{fill-rule:evenodd;clip-rule:evenodd;fill:#FFFFFF;}
</style>
<g>
	<path class="st0" d="M18.8,4.5c0.6,0,1,0.5,1,1v1h2c0.9,0,1.7,0.4,2.3,1l2.9,3.6c0.4,0.5,0.7,1.1,0.7,1.8v4.2
		c0,1.6-1.3,2.9-2.9,2.9h-1c0,2.1-1.7,3.9-3.9,3.9s-3.9-1.8-3.9-3.9h-5.4c0,2.1-1.7,3.9-3.9,3.9S2.7,22.2,2.7,20
		c-1,0-1.9-0.9-1.9-1.9v-1.9h17V5.5C17.8,5,18.3,4.5,18.8,4.5z M6.6,18c-1,0-1.9,0.9-1.9,1.9c0,1,0.9,1.9,1.9,1.9s1.9-0.9,1.9-1.9
		C8.6,19,7.7,18,6.6,18z M19.8,18c-1,0-1.9,0.9-1.9,1.9c0,1,0.9,1.9,1.9,1.9s1.9-0.9,1.9-1.9C21.7,19,20.8,18,19.8,18z"/>
	<path class="st0" d="M12.5,16.2c-0.9,0-1.6-0.6-1.8-1.4H5.9c-0.2,0.8-1,1.4-1.8,1.4s-1.6-0.6-1.8-1.4c-0.4,0-0.6,0-0.8-0.1
		s-0.4-0.3-0.5-0.5C1,13.9,1,13.7,1,13.3v-0.9c0-0.9,0-1.3,0.2-1.7C1.3,10.3,1.6,10,2,9.9c0.1-0.1,0.3-0.1,0.4-0.2l0.2-1
		c0.2-1,0.3-1.6,0.6-2.1c0.3-0.4,0.7-0.8,1-1c0.5-0.2,1-0.2,2.1-0.2h2.4c0.7,0,1,0,1.4,0.1c0.3,0.1,0.7,0.3,0.9,0.5
		c0.3,0.3,0.5,0.6,0.9,1.1l1.8,2.7c1.1,0.4,2,1.3,2.2,2.6c0,0.3,0,0.6,0,1c0,0.2,0,0.3,0,0.3c-0.1,0.5-0.5,1-1,1c-0.1,0-0.2,0-0.3,0
		h-0.1C14.1,15.6,13.3,16.2,12.5,16.2z M11.6,14.4c0,0.5,0.4,0.9,0.9,0.9c0.5,0,0.9-0.4,0.9-0.9s-0.4-0.9-0.9-0.9
		C12,13.5,11.6,13.8,11.6,14.4z M3.2,14.4c0,0.5,0.4,0.9,0.9,0.9S5,14.9,5,14.4s-0.4-0.9-0.9-0.9S3.2,13.8,3.2,14.4z"/>
</g>
<circle class="st1" cx="14.2" cy="14.2" r="14.2"/>
<path class="st2" d="M4.4,14.9v6.3c0,0.4,0.3,0.7,0.7,0.7h1.6c0.4,0,0.7-0.3,0.7-0.6L7.8,19h12.7l0.4,2.3c0.1,0.4,0.4,0.6,0.7,0.6
	h1.6c0.4,0,0.7-0.3,0.7-0.7v-6.3c0-1.1-0.3-2.3-1-3.2l-0.8-1.1c-0.1-0.1-0.1-0.2-0.2-0.3h1c0.3,0,0.5-0.2,0.7-0.4l0.2-0.5
	c0.2-0.4,0-0.8-0.3-1c-0.1-0.1-0.2-0.1-0.3-0.1h-1.6l-0.3-1.5c-0.2-0.9-0.9-1.7-1.8-1.9c-1.4-0.3-3.2-0.5-5.3-0.5
	c-2.1,0-3.8,0.2-5.3,0.5C8,5.1,7.3,5.8,7.1,6.8L6.8,8.3H5.1C4.7,8.3,4.4,8.6,4.4,9c0,0.1,0,0.2,0.1,0.3l0.2,0.5
	c0.1,0.2,0.4,0.4,0.7,0.4h1c0,0.1-0.1,0.2-0.2,0.3l-0.8,1.1C4.8,12.7,4.4,13.8,4.4,14.9L4.4,14.9z M20,10.2c0.1,0.3,0.2,0.7,0.3,1H8
	c0.2-0.3,0.3-0.6,0.3-1L9,7.2C9,7,9.2,6.8,9.3,6.8c1.3-0.3,2.9-0.4,4.8-0.4s3.6,0.2,4.8,0.4c0.2,0,0.3,0.2,0.4,0.4L20,10.2L20,10.2z
	 M7.8,16.1c0.8,0,1.5-0.7,1.5-1.5c0-0.8-0.7-1.5-1.5-1.5s-1.5,0.7-1.5,1.5C6.4,15.4,7,16.1,7.8,16.1z M22,14.6
	c0,0.8-0.7,1.5-1.5,1.5S19,15.4,19,14.6l0,0c0-0.8,0.7-1.5,1.5-1.5S22,13.8,22,14.6z"/>
</svg>
