<svg width="207" height="13" viewBox="0 0 207 13" fill="none" xmlns="http://www.w3.org/2000/svg">
<path d="M102.374 0L100.061 13H95.3746L91.9053 3.52336L90.262 13H86.3058L88.436 1.09346L87.7057 0H93.2443L96.7136 9.47664L98.4178 0H102.374ZM2.06939 1.03271L0 13H3.95619H4.13878L5.59953 4.79907L7.48633 12.9393H7.54719H10.1035H10.1644L15.0335 4.79907L13.5728 12.9393H17.4681L19.7809 0H15.3378L9.2514 10.1449L6.93855 0H4.19965H2.31285H1.39988L2.06939 1.03271ZM33.5972 7.35047H30.7365L33.4754 12.9393H29.5193L26.7804 7.35047H24.7718L23.798 12.9393H19.9027L22.0329 1.03271L21.3026 0H32.7451L34.571 1.88318L33.5972 7.35047ZM30.6757 2.06542H25.7457L25.1979 5.16355H30.1279L30.6757 2.06542ZM67.9856 7.35047H65.125L67.8639 12.9393H63.9077L61.1688 7.35047H59.1602L58.1864 12.9393H54.2911L56.4213 1.03271L55.6301 0H67.0726L68.8986 1.88318L67.9856 7.35047ZM65.0032 2.06542H60.0732L59.5254 5.16355H64.4555L65.0032 2.06542ZM35.2405 10.9346L34.8753 12.9393H38.2837L38.6489 10.9346H35.2405ZM42.6051 2.12617H46.4396L44.4919 13H48.4481L50.3958 2.12617H53.9259L54.2911 0H42.0573L42.7877 1.09346L42.6051 2.12617ZM163.056 7.35047H160.195L162.934 12.9393H158.978L156.239 7.35047H154.231L153.257 12.9393H149.361L151.492 1.03271L150.761 0H162.204L164.03 1.88318L163.056 7.35047ZM160.134 2.06542H155.204L154.657 5.16355H159.587L160.134 2.06542ZM206.087 7.35047H203.226L205.965 12.9393H202.009L199.27 7.35047H197.262L196.288 12.9393H192.332L194.462 1.03271L193.732 0H205.174L207 1.88318L206.087 7.35047ZM203.105 2.06542H198.175L197.627 5.16355H202.557L203.105 2.06542ZM167.377 2.12617H171.212L169.264 13H173.22L175.168 2.12617H178.698L179.063 0H166.829L167.56 1.09346L167.377 2.12617ZM82.0453 2.06542H76.2632L75.7154 5.16355H81.4975L82.0453 2.06542ZM75.2893 7.35047L74.3155 12.9393H70.4202L72.5504 1.03271L71.7592 0H84.1147L86.0015 1.94393L84.0538 13H79.9759L80.9497 7.41121H75.2893V7.35047ZM129.033 2.06542H124.103L123.555 5.2243H128.485L129.033 2.06542ZM132.076 7.35047H123.19L122.216 12.9393H118.32L120.451 1.03271L119.66 0H131.102L132.989 1.94393L132.076 7.35047ZM115.156 5.2243H107.608L108.156 2.24766H112.234L111.991 3.58411H116.008L116.312 1.94393L114.425 0H103.713L104.443 1.09346L103.287 7.28972H113.025L112.356 10.9953H102.617L102.252 13H116.008L117.042 7.16822L115.156 5.2243ZM145.04 2.06542H139.258L137.736 10.8738H143.518L145.04 2.06542ZM149.057 1.94393L147.109 13H135.423L133.719 11.2991L135.545 1.09346L134.815 0H147.17L149.057 1.94393ZM192.027 2.12617L192.393 0H180.524L181.254 1.09346L179.124 13H190.08L190.445 10.9953H183.506L184.176 7.35047H190.141L190.506 5.28505H184.541L185.089 2.18692H192.027V2.12617Z" fill="white"/>
</svg>
